<svg xmlns="http://www.w3.org/2000/svg" viewBox="0 0 800 400">
  <!-- Background and border -->
  <rect width="800" height="400" fill="#FDFAF4" rx="6"/>
  <rect x="4" y="4" width="792" height="392" fill="none" stroke="#D4C5A9" stroke-width="2" rx="4"/>

  <!-- Title -->
  <text x="400" y="38" text-anchor="middle" font-family="Georgia, serif" font-size="20" fill="#7C2530" font-weight="bold">Conditional Expectation: E[Y | X = x]</text>

  <!-- Axes -->
  <line x1="100" y1="340" x2="740" y2="340" stroke="#5C3D1E" stroke-width="2"/>
  <line x1="100" y1="340" x2="100" y2="60" stroke="#5C3D1E" stroke-width="2"/>

  <!-- Axis labels -->
  <text x="420" y="375" text-anchor="middle" font-family="Georgia, serif" font-size="16" fill="#5C3D1E">X</text>
  <text x="60" y="200" text-anchor="middle" font-family="Georgia, serif" font-size="16" fill="#5C3D1E" transform="rotate(-90,60,200)">Y</text>

  <!-- Scatter points — vertical clusters at different X values -->
  <!-- Cluster x~170 -->
  <circle cx="165" cy="290" r="4" fill="#C4A87A" opacity="0.55"/>
  <circle cx="175" cy="270" r="4" fill="#C4A87A" opacity="0.55"/>
  <circle cx="160" cy="310" r="4" fill="#C4A87A" opacity="0.55"/>
  <circle cx="180" cy="285" r="4" fill="#C4A87A" opacity="0.55"/>
  <circle cx="170" cy="260" r="4" fill="#C4A87A" opacity="0.55"/>
  <circle cx="168" cy="305" r="4" fill="#C4A87A" opacity="0.55"/>
  <circle cx="178" cy="240" r="4" fill="#C4A87A" opacity="0.55"/>

  <!-- Cluster x~260 -->
  <circle cx="255" cy="255" r="4" fill="#C4A87A" opacity="0.55"/>
  <circle cx="265" cy="230" r="4" fill="#C4A87A" opacity="0.55"/>
  <circle cx="250" cy="275" r="4" fill="#C4A87A" opacity="0.55"/>
  <circle cx="270" cy="250" r="4" fill="#C4A87A" opacity="0.55"/>
  <circle cx="258" cy="220" r="4" fill="#C4A87A" opacity="0.55"/>
  <circle cx="262" cy="268" r="4" fill="#C4A87A" opacity="0.55"/>
  <circle cx="248" cy="240" r="4" fill="#C4A87A" opacity="0.55"/>
  <circle cx="272" cy="210" r="4" fill="#C4A87A" opacity="0.55"/>

  <!-- Cluster x~350 -->
  <circle cx="345" cy="210" r="4" fill="#C4A87A" opacity="0.55"/>
  <circle cx="355" cy="185" r="4" fill="#C4A87A" opacity="0.55"/>
  <circle cx="340" cy="230" r="4" fill="#C4A87A" opacity="0.55"/>
  <circle cx="360" cy="200" r="4" fill="#C4A87A" opacity="0.55"/>
  <circle cx="348" cy="175" r="4" fill="#C4A87A" opacity="0.55"/>
  <circle cx="352" cy="225" r="4" fill="#C4A87A" opacity="0.55"/>
  <circle cx="358" cy="160" r="4" fill="#C4A87A" opacity="0.55"/>
  <circle cx="342" cy="195" r="4" fill="#C4A87A" opacity="0.55"/>

  <!-- Cluster x~440 -->
  <circle cx="435" cy="175" r="4" fill="#C4A87A" opacity="0.55"/>
  <circle cx="445" cy="150" r="4" fill="#C4A87A" opacity="0.55"/>
  <circle cx="430" cy="195" r="4" fill="#C4A87A" opacity="0.55"/>
  <circle cx="450" cy="165" r="4" fill="#C4A87A" opacity="0.55"/>
  <circle cx="438" cy="140" r="4" fill="#C4A87A" opacity="0.55"/>
  <circle cx="442" cy="185" r="4" fill="#C4A87A" opacity="0.55"/>
  <circle cx="448" cy="125" r="4" fill="#C4A87A" opacity="0.55"/>

  <!-- Cluster x~530 -->
  <circle cx="525" cy="150" r="4" fill="#C4A87A" opacity="0.55"/>
  <circle cx="535" cy="130" r="4" fill="#C4A87A" opacity="0.55"/>
  <circle cx="520" cy="170" r="4" fill="#C4A87A" opacity="0.55"/>
  <circle cx="540" cy="145" r="4" fill="#C4A87A" opacity="0.55"/>
  <circle cx="528" cy="120" r="4" fill="#C4A87A" opacity="0.55"/>
  <circle cx="532" cy="160" r="4" fill="#C4A87A" opacity="0.55"/>
  <circle cx="538" cy="105" r="4" fill="#C4A87A" opacity="0.55"/>
  <circle cx="522" cy="140" r="4" fill="#C4A87A" opacity="0.55"/>

  <!-- Cluster x~620 -->
  <circle cx="615" cy="125" r="4" fill="#C4A87A" opacity="0.55"/>
  <circle cx="625" cy="105" r="4" fill="#C4A87A" opacity="0.55"/>
  <circle cx="610" cy="145" r="4" fill="#C4A87A" opacity="0.55"/>
  <circle cx="630" cy="120" r="4" fill="#C4A87A" opacity="0.55"/>
  <circle cx="618" cy="100" r="4" fill="#C4A87A" opacity="0.55"/>
  <circle cx="622" cy="138" r="4" fill="#C4A87A" opacity="0.55"/>
  <circle cx="628" cy="90" r="4" fill="#C4A87A" opacity="0.55"/>

  <!-- Conditional mean dots (E[Y|X=x]) -->
  <circle cx="170" cy="280" r="6" fill="#7C2530"/>
  <circle cx="260" cy="243" r="6" fill="#7C2530"/>
  <circle cx="350" cy="197" r="6" fill="#7C2530"/>
  <circle cx="440" cy="162" r="6" fill="#7C2530"/>
  <circle cx="530" cy="140" r="6" fill="#7C2530"/>
  <circle cx="620" cy="118" r="6" fill="#7C2530"/>

  <!-- Regression curve E[Y|X=x] through conditional means -->
  <path d="M 120 310 Q 200 265, 260 243 Q 320 220, 350 197 Q 400 175, 440 162 Q 490 148, 530 140 Q 580 130, 620 118 Q 670 105, 720 95" fill="none" stroke="#2D5A8E" stroke-width="3" stroke-linecap="round"/>

  <!-- Vertical spread indicators (conditional distributions) -->
  <line x1="170" y1="240" x2="170" y2="315" stroke="#7C2530" stroke-width="1.5" stroke-dasharray="4,3" opacity="0.5"/>
  <line x1="350" y1="160" x2="350" y2="230" stroke="#7C2530" stroke-width="1.5" stroke-dasharray="4,3" opacity="0.5"/>
  <line x1="530" y1="105" x2="530" y2="170" stroke="#7C2530" stroke-width="1.5" stroke-dasharray="4,3" opacity="0.5"/>

  <!-- Legend -->
  <circle cx="140" cy="70" r="5" fill="#C4A87A" opacity="0.55"/>
  <text x="152" y="75" font-family="Georgia, serif" font-size="13" fill="#5C3D1E">Observed data (Y, X)</text>

  <circle cx="370" cy="70" r="5" fill="#7C2530"/>
  <text x="382" y="75" font-family="Georgia, serif" font-size="13" fill="#5C3D1E">Conditional mean E[Y|X=x]</text>

  <line x1="580" y1="70" x2="615" y2="70" stroke="#2D5A8E" stroke-width="3"/>
  <text x="622" y="75" font-family="Georgia, serif" font-size="13" fill="#5C3D1E">Regression curve</text>
</svg>