<svg xmlns="http://www.w3.org/2000/svg" viewBox="0 0 800 400" font-family="Georgia, serif">
  <!-- Background -->
  <rect width="800" height="400" fill="#FDFAF4" rx="6"/>
  <rect x="1" y="1" width="798" height="398" fill="none" stroke="#D4C5A9" stroke-width="2" rx="6"/>

  <!-- Title -->
  <text x="400" y="32" text-anchor="middle" font-size="17" font-weight="bold" fill="#5C3D1E">Fokker-Planck Equation: Probability Density Evolution</text>

  <!-- в•ђв•ђв•ђв•ђв•ђв•ђв•ђв•ђв•ђв•ђв•ђв•ђв•ђв•ђв•ђв•ђв•ђв•ђв•ђв•ђв•ђв•ђв•ђв•ђв•ђв•ђв•ђв•ђв•ђв•ђв•ђв•ђв•ђв•ђв•ђв•ђв•ђв•ђв•ђв•ђв•ђв•ђв•ђв•ђв•ђв•ђв•ђв•ђв•ђв•ђв•ђ -->
  <!-- LEFT PANEL: Evolving density curves -->
  <!-- в•ђв•ђв•ђв•ђв•ђв•ђв•ђв•ђв•ђв•ђв•ђв•ђв•ђв•ђв•ђв•ђв•ђв•ђв•ђв•ђв•ђв•ђв•ђв•ђв•ђв•ђв•ђв•ђв•ђв•ђв•ђв•ђв•ђв•ђв•ђв•ђв•ђв•ђв•ђв•ђв•ђв•ђв•ђв•ђв•ђв•ђв•ђв•ђв•ђв•ђв•ђ -->
  <text x="220" y="60" text-anchor="middle" font-size="13" fill="#5C3D1E" font-style="italic">Forward Evolution: Drift + Diffusion</text>

  <!-- Axes -->
  <!-- x-axis -->
  <line x1="40" y1="320" x2="420" y2="320" stroke="#5C3D1E" stroke-width="1.5"/>
  <text x="425" y="324" font-size="12" fill="#5C3D1E">x</text>
  <!-- y-axis -->
  <line x1="40" y1="75" x2="40" y2="320" stroke="#5C3D1E" stroke-width="1.5"/>
  <text x="28" y="72" font-size="12" fill="#5C3D1E" text-anchor="middle">p</text>

  <!-- Tick marks on x-axis -->
  <line x1="110" y1="317" x2="110" y2="323" stroke="#5C3D1E" stroke-width="1"/>
  <line x1="180" y1="317" x2="180" y2="323" stroke="#5C3D1E" stroke-width="1"/>
  <line x1="250" y1="317" x2="250" y2="323" stroke="#5C3D1E" stroke-width="1"/>
  <line x1="320" y1="317" x2="320" y2="323" stroke="#5C3D1E" stroke-width="1"/>
  <line x1="390" y1="317" x2="390" y2="323" stroke="#5C3D1E" stroke-width="1"/>

  <!--
    Gaussian at t=0: mean=110, sigma=22 в†’ tall, narrow, leftmost
    Gaussian at t=1: mean=165, sigma=33
    Gaussian at t=2: mean=220, sigma=44
    Gaussian at t=3: mean=280, sigma=58 в†’ short, wide, rightmost
    Baseline y=320. Height scales with 1/sigma for area preservation.
    Peak height in px: H = 200 * (22/sigma)
    Cubic Bezier approximation of each Gaussian.
  -->

  <!-- t=0: mean=110, sigma=22, H=200 => peak y=120 -->
  <!-- Gaussian path via polyline approximation (sampled points) -->
  <polyline
    fill="none" stroke="#7C2530" stroke-width="2.2" opacity="0.95"
    points="
      40,320
      55,319.5
      66,317
      77,308
      88,284
      99,244
      110,120
      121,244
      132,284
      143,308
      154,317
      165,319.5
      180,320
    "
  />

  <!-- t=1: mean=165, sigma=33, H=133 => peak y=187 -->
  <polyline
    fill="none" stroke="#2D5A8E" stroke-width="2.2" opacity="0.90"
    points="
      55,320
      77,319
      99,313
      121,294
      143,256
      165,187
      187,256
      209,294
      231,313
      253,319
      275,320
    "
  />

  <!-- t=2: mean=225, sigma=46, H=96 => peak y=224 -->
  <polyline
    fill="none" stroke="#C4A87A" stroke-width="2.2" opacity="0.90"
    points="
      80,320
      103,319.5
      126,316
      149,305
      172,281
      195,247
      225,224
      255,247
      278,281
      301,305
      324,316
      347,319.5
      370,320
    "
  />

  <!-- t=3: mean=288, sigma=62, H=71 => peak y=249 -->
  <polyline
    fill="none" stroke="#5C3D1E" stroke-width="2.2" opacity="0.85"
    points="
      110,320
      140,319.5
      164,317
      188,309
      212,293
      236,268
      264,249
      288,249
      312,249
      336,268
      360,293
      384,309
      408,319
      420,320
    "
  />

  <!-- Legend for curves -->
  <line x1="50" y1="345" x2="75" y2="345" stroke="#7C2530" stroke-width="2.2"/>
  <text x="79" y="349" font-size="11" fill="#7C2530">t = 0</text>
  <line x1="120" y1="345" x2="145" y2="345" stroke="#2D5A8E" stroke-width="2.2"/>
  <text x="149" y="349" font-size="11" fill="#2D5A8E">t = 1</text>
  <line x1="190" y1="345" x2="215" y2="345" stroke="#C4A87A" stroke-width="2.2"/>
  <text x="219" y="349" font-size="11" fill="#C4A87A">t = 2</text>
  <line x1="260" y1="345" x2="285" y2="345" stroke="#5C3D1E" stroke-width="2.2"/>
  <text x="289" y="349" font-size="11" fill="#5C3D1E">t = 3</text>

  <!-- Drift arrow -->
  <defs>
    <marker id="arr" markerWidth="8" markerHeight="6" refX="8" refY="3" orient="auto">
      <polygon points="0 0, 8 3, 0 6" fill="#7C2530"/>
    </marker>
    <marker id="arr2" markerWidth="8" markerHeight="6" refX="8" refY="3" orient="auto">
      <polygon points="0 0, 8 3, 0 6" fill="#2D5A8E"/>
    </marker>
  </defs>
  <!-- Drift arrow along x-axis showing rightward drift -->
  <line x1="110" y1="335" x2="275" y2="335" stroke="#7C2530" stroke-width="1.5" stroke-dasharray="4,3" marker-end="url(#arr)"/>
  <text x="192" y="330" text-anchor="middle" font-size="11" fill="#7C2530">drift Ој</text>

  <!-- в•ђв•ђв•ђв•ђв•ђв•ђв•ђв•ђв•ђв•ђв•ђв•ђв•ђв•ђв•ђв•ђв•ђв•ђв•ђв•ђв•ђв•ђв•ђв•ђв•ђв•ђв•ђв•ђв•ђв•ђв•ђв•ђв•ђв•ђв•ђв•ђв•ђв•ђв•ђв•ђв•ђв•ђв•ђв•ђв•ђв•ђв•ђв•ђв•ђв•ђв•ђ -->
  <!-- CENTER DIVIDER -->
  <!-- в•ђв•ђв•ђв•ђв•ђв•ђв•ђв•ђв•ђв•ђв•ђв•ђв•ђв•ђв•ђв•ђв•ђв•ђв•ђв•ђв•ђв•ђв•ђв•ђв•ђв•ђв•ђв•ђв•ђв•ђв•ђв•ђв•ђв•ђв•ђв•ђв•ђв•ђв•ђв•ђв•ђв•ђв•ђв•ђв•ђв•ђв•ђв•ђв•ђв•ђв•ђ -->
  <line x1="445" y1="50" x2="445" y2="380" stroke="#D4C5A9" stroke-width="1.5" stroke-dasharray="6,4"/>

  <!-- в•ђв•ђв•ђв•ђв•ђв•ђв•ђв•ђв•ђв•ђв•ђв•ђв•ђв•ђв•ђв•ђв•ђв•ђв•ђв•ђв•ђв•ђв•ђв•ђв•ђв•ђв•ђв•ђв•ђв•ђв•ђв•ђв•ђв•ђв•ђв•ђв•ђв•ђв•ђв•ђв•ђв•ђв•ђв•ђв•ђв•ђв•ђв•ђв•ђв•ђв•ђ -->
  <!-- RIGHT TOP PANEL: FPE formula breakdown -->
  <!-- в•ђв•ђв•ђв•ђв•ђв•ђв•ђв•ђв•ђв•ђв•ђв•ђв•ђв•ђв•ђв•ђв•ђв•ђв•ђв•ђв•ђв•ђв•ђв•ђв•ђв•ђв•ђв•ђв•ђв•ђв•ђв•ђв•ђв•ђв•ђв•ђв•ђв•ђв•ђв•ђв•ђв•ђв•ђв•ђв•ђв•ђв•ђв•ђв•ђв•ђв•ђ -->
  <text x="622" y="65" text-anchor="middle" font-size="13" fill="#5C3D1E" font-style="italic">The Equation</text>

  <!-- FPE formula box -->
  <rect x="460" y="75" width="320" height="52" rx="5" fill="#FFF8EE" stroke="#D4C5A9" stroke-width="1.2"/>
  <text x="620" y="96" text-anchor="middle" font-size="13" fill="#5C3D1E">в€‚p/в€‚t  =  в€’в€‚(Ојp)/в€‚x  +  ВЅ в€‚ВІ(ПѓВІp)/в€‚xВІ</text>
  <text x="620" y="118" text-anchor="middle" font-size="11" fill="#888">Fokker-Planck (forward Kolmogorov) equation</text>

  <!-- Drift term label -->
  <rect x="460" y="140" width="148" height="42" rx="4" fill="#FFF0F0" stroke="#7C2530" stroke-width="1.2"/>
  <text x="534" y="158" text-anchor="middle" font-size="12" font-weight="bold" fill="#7C2530">Drift term</text>
  <text x="534" y="175" text-anchor="middle" font-size="11" fill="#7C2530">в€’в€‚(Ојp)/в€‚x</text>

  <!-- Arrow between -->
  <text x="618" y="166" text-anchor="middle" font-size="13" fill="#5C3D1E">+</text>

  <!-- Diffusion term label -->
  <rect x="632" y="140" width="148" height="42" rx="4" fill="#EEF4FF" stroke="#2D5A8E" stroke-width="1.2"/>
  <text x="706" y="158" text-anchor="middle" font-size="12" font-weight="bold" fill="#2D5A8E">Diffusion term</text>
  <text x="706" y="175" text-anchor="middle" font-size="11" fill="#2D5A8E">ВЅ в€‚ВІ(ПѓВІp)/в€‚xВІ</text>

  <!-- Descriptions -->
  <text x="534" y="200" text-anchor="middle" font-size="10.5" fill="#7C2530">Advects density</text>
  <text x="534" y="213" text-anchor="middle" font-size="10.5" fill="#7C2530">in direction of Ој</text>
  <text x="706" y="200" text-anchor="middle" font-size="10.5" fill="#2D5A8E">Spreads density</text>
  <text x="706" y="213" text-anchor="middle" font-size="10.5" fill="#2D5A8E">outward over time</text>

  <!-- в•ђв•ђв•ђв•ђв•ђв•ђв•ђв•ђв•ђв•ђв•ђв•ђв•ђв•ђв•ђв•ђв•ђв•ђв•ђв•ђв•ђв•ђв•ђв•ђв•ђв•ђв•ђв•ђв•ђв•ђв•ђв•ђв•ђв•ђв•ђв•ђв•ђв•ђв•ђв•ђв•ђв•ђв•ђв•ђв•ђв•ђв•ђв•ђв•ђв•ђв•ђ -->
  <!-- RIGHT BOTTOM PANEL: Stationary / Boltzmann dist -->
  <!-- в•ђв•ђв•ђв•ђв•ђв•ђв•ђв•ђв•ђв•ђв•ђв•ђв•ђв•ђв•ђв•ђв•ђв•ђв•ђв•ђв•ђв•ђв•ђв•ђв•ђв•ђв•ђв•ђв•ђв•ђв•ђв•ђв•ђв•ђв•ђв•ђв•ђв•ђв•ђв•ђв•ђв•ђв•ђв•ђв•ђв•ђв•ђв•ђв•ђв•ђв•ђ -->
  <text x="622" y="242" text-anchor="middle" font-size="13" fill="#5C3D1E" font-style="italic">Stationary Distribution (Langevin)</text>

  <!-- Boltzmann formula -->
  <rect x="460" y="250" width="320" height="36" rx="5" fill="#FFF8EE" stroke="#D4C5A9" stroke-width="1.2"/>
  <text x="620" y="273" text-anchor="middle" font-size="13" fill="#5C3D1E">pв€ћ(x) в€ќ exp(в€’U(x) / T)</text>

  <!-- Mini axes for double-well -->
  <!-- x-axis -->
  <line x1="465" y1="360" x2="775" y2="360" stroke="#5C3D1E" stroke-width="1.2"/>
  <!-- y-axis -->
  <line x1="465" y1="296" x2="465" y2="360" stroke="#5C3D1E" stroke-width="1.2"/>
  <text x="460" y="294" font-size="10" fill="#5C3D1E" text-anchor="middle">p</text>
  <text x="778" y="364" font-size="10" fill="#5C3D1E">x</text>

  <!--
    Double-well potential U(x) = (x^2-1)^2 scaled for display
    Boltzmann: p в€ќ exp(-U/T) вЂ” two peaks, suppressed in the middle
    Map x in [-2.2, 2.2] в†’ px in [465, 775], center=620, scale=70
    Peaks at x=В±1 в†’ px=550 and 690
    At x=0 (px=620): U=1, p в€ќ exp(-1/T) в†’ moderate dip
    We'll use T=0.5 so exp(-1/0.5)=exp(-2)в‰€0.135 (noticeable dip)
    Peak height: p в€ќ exp(0)=1 в†’ y_peak = 296+10 = 306 px above axis
    Peak y in SVG: 360 - scale*p_normalized. Max p=1в†’ 60px height
    p_mid = exp(-2) в‰€ 0.135 в†’ height = 8px
    x values and their p values (T=0.5):
      px=470 (x=-2.1): U=(4.41-1)^2=11.6, pв‰€0 в†’ yв‰€360
      px=490 (x=-1.85): U=(3.42-1)^2=5.86, pв‰€exp(-11.7)в‰€0 в†’ yв‰€360
      px=515 (x=-1.5): U=(2.25-1)^2=1.56, pв‰€exp(-3.12)=0.044 в†’ yв‰€357
      px=535 (x=-1.24): U=(1.54-1)^2=0.29, pв‰€exp(-0.58)=0.560 в†’ yв‰€326
      px=550 (x=-1.0): U=0, p=1.0 в†’ y=300
      px=565 (x=-0.76): U=(0.58-1)^2=0.18, pв‰€exp(-0.36)=0.698 в†’ yв‰€318
      px=580 (x=-0.5): U=(0.25-1)^2=0.5625, pв‰€exp(-1.125)=0.325 в†’ yв‰€340
      px=595 (x=-0.24): U=(0.058-1)^2=0.888, pв‰€exp(-1.78)=0.169 в†’ yв‰€350
      px=620 (x=0): U=1, pв‰€exp(-2)=0.135 в†’ yв‰€352
      px=645 (x=0.24): U=0.888, pв‰€0.169 в†’ yв‰€350
      px=660 (x=0.5): U=0.5625, pв‰€0.325 в†’ yв‰€340
      px=675 (x=0.76): U=0.18, pв‰€0.698 в†’ yв‰€318
      px=690 (x=1.0): U=0, p=1.0 в†’ y=300
      px=705 (x=1.24): U=0.29, pв‰€0.560 в†’ yв‰€326
      px=725 (x=1.5): U=1.56, pв‰€0.044 в†’ yв‰€357
      px=750 (x=1.85): Uв‰€5.86, pв‰€0 в†’ yв‰€360
      px=770 (x=2.1): pв‰€0 в†’ yв‰€360
    scale=60px for height (y = 360 - 60*p)
  -->
  <polyline
    fill="none" stroke="#5C3D1E" stroke-width="2"
    points="
      470,360
      490,360
      515,357.4
      535,326.4
      550,300
      565,318.1
      580,340.5
      595,349.9
      620,351.9
      645,349.9
      660,340.5
      675,318.1
      690,300
      705,326.4
      725,357.4
      750,360
      770,360
    "
  />
  <!-- Fill under the curve -->
  <polygon
    fill="#5C3D1E" opacity="0.10"
    points="
      470,360
      490,360
      515,357.4
      535,326.4
      550,300
      565,318.1
      580,340.5
      595,349.9
      620,351.9
      645,349.9
      660,340.5
      675,318.1
      690,300
      705,326.4
      725,357.4
      750,360
      770,360
    "
  />

  <!-- Labels for peaks -->
  <text x="550" y="296" text-anchor="middle" font-size="10" fill="#5C3D1E">mode</text>
  <text x="690" y="296" text-anchor="middle" font-size="10" fill="#5C3D1E">mode</text>
  <!-- Barrier label -->
  <text x="620" y="346" text-anchor="middle" font-size="9.5" fill="#888">barrier</text>
  <text x="522" y="380" text-anchor="middle" font-size="10" fill="#5C3D1E">Double-well U(x): Boltzmann stationary pв€ћ</text>
  <text x="720" y="380" text-anchor="middle" font-size="10" fill="#5C3D1E"></text>

</svg>
