<svg viewBox="0 0 800 400" xmlns="http://www.w3.org/2000/svg">
  <rect x="0" y="0" width="800" height="400" rx="12" fill="#FDFAF4" stroke="#D4C5A9" stroke-width="3"/>

  <!-- Center hub -->
  <circle cx="400" cy="200" r="62" fill="#7C2530" stroke="#5C3D1E" stroke-width="2"/>
  <text x="400" y="193" text-anchor="middle" font-family="Georgia, serif" font-size="17" fill="#FDFAF4" font-weight="bold">Jan</text>
  <text x="400" y="213" text-anchor="middle" font-family="Georgia, serif" font-size="17" fill="#FDFAF4" font-weight="bold">Peters</text>

  <!-- Spoke lines -->
  <line x1="340" y1="175" x2="185" y2="100" stroke="#C4A87A" stroke-width="2.5"/>
  <line x1="460" y1="175" x2="615" y2="100" stroke="#C4A87A" stroke-width="2.5"/>
  <line x1="340" y1="225" x2="170" y2="310" stroke="#C4A87A" stroke-width="2.5"/>
  <line x1="460" y1="225" x2="630" y2="310" stroke="#C4A87A" stroke-width="2.5"/>
  <line x1="400" y1="262" x2="400" y2="340" stroke="#C4A87A" stroke-width="2.5"/>

  <!-- Robot Learning node -->
  <ellipse cx="150" cy="85" rx="95" ry="32" fill="#2D5A8E" stroke="#5C3D1E" stroke-width="1.5"/>
  <text x="150" y="82" text-anchor="middle" font-family="Georgia, serif" font-size="14" fill="#FDFAF4">Robot</text>
  <text x="150" y="99" text-anchor="middle" font-family="Georgia, serif" font-size="14" fill="#FDFAF4">Learning</text>

  <!-- Motor Skill Learning node -->
  <ellipse cx="650" cy="85" rx="105" ry="32" fill="#2D5A8E" stroke="#5C3D1E" stroke-width="1.5"/>
  <text x="650" y="82" text-anchor="middle" font-family="Georgia, serif" font-size="14" fill="#FDFAF4">Motor Skill</text>
  <text x="650" y="99" text-anchor="middle" font-family="Georgia, serif" font-size="14" fill="#FDFAF4">Learning</text>

  <!-- Policy Search node -->
  <ellipse cx="140" cy="320" rx="95" ry="32" fill="#5C3D1E" stroke="#D4C5A9" stroke-width="1.5"/>
  <text x="140" y="317" text-anchor="middle" font-family="Georgia, serif" font-size="14" fill="#FDFAF4">Policy</text>
  <text x="140" y="334" text-anchor="middle" font-family="Georgia, serif" font-size="14" fill="#FDFAF4">Search</text>

  <!-- TU Darmstadt node -->
  <ellipse cx="400" cy="355" rx="100" ry="30" fill="#5C3D1E" stroke="#D4C5A9" stroke-width="1.5"/>
  <text x="400" y="352" text-anchor="middle" font-family="Georgia, serif" font-size="13" fill="#FDFAF4">TU</text>
  <text x="400" y="369" text-anchor="middle" font-family="Georgia, serif" font-size="13" fill="#FDFAF4">Darmstadt</text>

  <!-- Max Planck Institute node -->
  <ellipse cx="660" cy="320" rx="110" ry="32" fill="#2D5A8E" stroke="#5C3D1E" stroke-width="1.5"/>
  <text x="660" y="317" text-anchor="middle" font-family="Georgia, serif" font-size="13" fill="#FDFAF4">Max Planck</text>
  <text x="660" y="334" text-anchor="middle" font-family="Georgia, serif" font-size="13" fill="#FDFAF4">Institute</text>
</svg>